<?xml version="1.0" encoding="UTF-8"?>
<svg version="1.1" xmlns="http://www.w3.org/2000/svg" width="676" height="369">
<path d="M0 0 C89.1 0 178.2 0 270 0 C270 76.23 270 152.46 270 231 C180.9 231 91.8 231 0 231 C0 154.77 0 78.54 0 0 Z " fill="#FCFCFC" transform="translate(203,69)"/>
<path d="M0 0 C0 42.57 0 85.14 0 129 C-27.72 129 -55.44 129 -84 129 C-84 114.15 -84 99.3 -84 84 C-98.19 84 -112.38 84 -127 84 C-127 98.85 -127 113.7 -127 129 C-158.68 129 -190.36 129 -223 129 C-223.20625 120.09 -223.4125 111.18 -223.625 102 C-223.71604004 99.20144531 -223.80708008 96.40289062 -223.90087891 93.51953125 C-223.93010384 91.28390284 -223.95558164 89.04822097 -223.9765625 86.8125 C-224.02772217 85.66587891 -224.07888184 84.51925781 -224.1315918 83.33789062 C-224.13687073 78.4643769 -224.13067381 75.30143417 -220.85250854 71.52818298 C-218.31968004 69.47776127 -215.77021704 67.71184401 -213 66 C-211.61983288 65.04666859 -210.24167528 64.09040789 -208.8671875 63.12890625 C-207.54096065 62.26647408 -206.21014343 61.41106286 -204.875 60.5625 C-204.15417236 60.10004883 -203.43334473 59.63759766 -202.69067383 59.16113281 C-195.99355063 54.90987108 -189.11543624 51.02051493 -182.15673828 47.21777344 C-180.5507577 46.31097797 -178.9632444 45.37132287 -177.38623047 44.41503906 C-169.43357816 39.61439324 -161.28178324 35.86139286 -152.75 32.25 C-151.4267956 31.68165901 -150.10387758 31.1126508 -148.78125 30.54296875 C-131.20959895 23 -131.20959895 23 -127 23 C-127 34.88 -127 46.76 -127 59 C-112.81 59 -98.62 59 -84 59 C-84 42.83 -84 26.66 -84 10 C-78.703269 8.234423 -73.76987163 7.05282625 -68.3125 6.0625 C-67.36785889 5.89065186 -66.42321777 5.71880371 -65.44995117 5.54174805 C-54.37015752 3.60666779 -43.20385455 2.3996335 -32.01416016 1.29931641 C-30.13734115 1.11294186 -28.26165032 0.91428021 -26.38818359 0.69677734 C-17.47666671 -0.27227163 -9.15987876 0 0 0 Z " fill="#FC0000" transform="translate(449,148)"/>
<path d="M0 0 C24.75 0 49.5 0 75 0 C80.28 9.9 85.56 19.8 91 30 C94.96421354 36.79079967 94.96421354 36.79079967 98.98046875 43.55078125 C101.28287949 47.48313846 103.30151994 51.4981412 105.28515625 55.59765625 C109.28018702 63.5240157 113.68845971 71.24245019 118 79 C119.75895459 76.36156812 121.26043997 73.7400036 122.7578125 70.94921875 C123.29720459 69.94721436 123.83659668 68.94520996 124.39233398 67.9128418 C125.25000366 66.31629761 125.25000366 66.31629761 126.125 64.6875 C130.36086022 56.83089759 134.63337025 49.00852122 139.12109375 41.29296875 C142.98494221 34.52119277 146.65581065 27.64158315 150.359375 20.78125 C150.91753906 19.74742188 151.47570312 18.71359375 152.05078125 17.6484375 C153.20017969 15.51874751 154.34859008 13.38852401 155.49609375 11.2578125 C156.04910156 10.23429687 156.60210937 9.21078125 157.171875 8.15625 C157.6678418 7.23650391 158.16380859 6.31675781 158.67480469 5.36914062 C160 3 160 3 162 0 C164.5942688 -0.36076355 164.5942688 -0.36076355 167.91845703 -0.34057617 C169.15959259 -0.34034958 170.40072815 -0.34012299 171.67947388 -0.33988953 C173.03892372 -0.32456848 174.39836991 -0.30892047 175.7578125 -0.29296875 C177.1450047 -0.28737427 178.53220283 -0.28310347 179.91940308 -0.28010559 C183.57249281 -0.26864497 187.22522534 -0.23916786 190.87817383 -0.20599365 C194.60493042 -0.17531868 198.33174638 -0.16144154 202.05859375 -0.14648438 C209.37271143 -0.11588991 216.6858479 -0.0571749 224 0 C224 16.83 224 33.66 224 51 C218.328125 51.268125 212.65625 51.53625 206.8125 51.8125 C193.0585563 52.52903783 179.57119657 53.57580283 166 56 C163.56380576 56.42319825 161.12760754 56.84637361 158.69140625 57.26953125 C150.11370021 58.77398238 141.53974851 60.2920503 133 62 C133 77.84 133 93.68 133 110 C122.44 110 111.88 110 101 110 C101 97.46 101 84.92 101 72 C81.84504839 77.89383126 64.57487746 85.44178266 47.01953125 94.8671875 C43.55130056 96.72314629 40.03902154 98.46970302 36.5 100.1875 C32.26348458 102.2885361 28.36760295 104.60412569 24.484375 107.296875 C21.32801968 109.46066575 18.10274182 111.50736765 14.875 113.5625 C11.08562475 115.98148625 7.32707803 118.42099182 3.6875 121.0625 C1 123 1 123 0 123 C0 82.41 0 41.82 0 0 Z " fill="#1E1D5C" transform="translate(226,92)"/>
<path d="M0 0 C89.1 0 178.2 0 270 0 C270 76.23 270 152.46 270 231 C180.9 231 91.8 231 0 231 C0 154.77 0 78.54 0 0 Z M12 12 C12 80.31 12 148.62 12 219 C93.51 219 175.02 219 259 219 C259 150.69 259 82.38 259 12 C177.49 12 95.98 12 12 12 Z " fill="#21215D" transform="translate(203,69)"/>
<path d="M0 0 C0.33 0 0.66 0 1 0 C1.33 40.26 1.66 80.52 2 122 C5.3 119.69 8.6 117.38 12 115 C15.15525565 112.95578617 18.31347759 110.93100152 21.5 108.9375 C22.33313721 108.41510742 23.16627441 107.89271484 24.0246582 107.35449219 C25.64647607 106.33940783 27.26922882 105.32581509 28.89306641 104.31396484 C30.56121165 103.27364529 32.22479409 102.22600969 33.88671875 101.17578125 C41.30557642 96.57835672 49.15101685 92.79704868 57 89 C57.94649414 88.54125488 57.94649414 88.54125488 58.91210938 88.07324219 C68.77746728 83.31728725 78.82185391 79.04033244 89 75 C89.69496582 74.71318359 90.38993164 74.42636719 91.10595703 74.13085938 C91.79415527 73.85564453 92.48235352 73.58042969 93.19140625 73.296875 C94.10901733 72.92320801 94.10901733 72.92320801 95.04516602 72.54199219 C97 72 97 72 102 72 C102 84.54 102 97.08 102 110 C112.56 110 123.12 110 134 110 C134 94.16 134 78.32 134 62 C138.27095613 60.29161755 141.83331823 59.33344086 146.3125 58.4921875 C147.3495105 58.29666794 147.3495105 58.29666794 148.4074707 58.09719849 C149.86265113 57.82417763 151.31831156 57.55370416 152.77441406 57.28564453 C154.99426075 56.87605895 157.21198797 56.45619491 159.4296875 56.03515625 C160.84884321 55.77021595 162.26811058 55.50587287 163.6875 55.2421875 C165.61142578 54.88423096 165.61142578 54.88423096 167.57421875 54.51904297 C170.4630717 54.08135045 173.08909855 53.88938018 176 54 C175.01 54.66 174.02 55.32 173 56 C173.33 56.66 173.66 57.32 174 58 C174.85464844 57.85691406 175.70929688 57.71382812 176.58984375 57.56640625 C177.71519531 57.37949219 178.84054687 57.19257813 180 57 C181.01191406 56.82339844 182.02382813 56.64679688 183.06640625 56.46484375 C197.35273255 54.30992302 209.99821463 55 225 55 C225 98.56 225 142.12 225 187 C204.271875 187.2784375 204.271875 187.2784375 183.125 187.5625 C176.57422607 187.65446655 176.57422607 187.65446655 169.89111328 187.74829102 C164.56811523 187.81628418 164.56811523 187.81628418 162.07809448 187.8467865 C160.33482391 187.86911436 158.59157864 187.89347319 156.84835815 187.91941833 C154.21160496 187.95827133 151.57484389 187.99072808 148.93798828 188.02172852 C148.15824205 188.03469499 147.37849583 188.04766146 146.57512093 188.06102085 C141.22805267 188.11402634 141.22805267 188.11402634 139 187 C139 171.82 139 156.64 139 141 C125.14 141 111.28 141 97 141 C97 140.67 97 140.34 97 140 C111.19 140 125.38 140 140 140 C140 154.85 140 169.7 140 185 C167.72 185 195.44 185 224 185 C224 142.43 224 99.86 224 56 C197.13186835 57.8529746 171.37313118 59.79491108 145.20703125 65.58862305 C143 66 143 66 140 66 C140 82.17 140 98.34 140 115 C125.81 115 111.62 115 97 115 C97 103.12 97 91.24 97 79 C76.14333632 86.75078718 56.53002365 95.22698689 37.37451172 106.59375 C35.2384038 107.85881083 33.09276484 109.10487717 30.94140625 110.34375 C21.76340559 115.67691254 13.13603934 121.69298087 4.54956055 127.92773438 C3 129 3 129 1 130 C-0.31547569 124.00581593 -0.13280507 118.0381342 -0.11352539 111.93603516 C-0.11367142 110.72571625 -0.11381744 109.51539734 -0.1139679 108.2684021 C-0.11339208 104.96305297 -0.10838909 101.65776689 -0.10139394 98.35242891 C-0.09512754 94.89310677 -0.094554 91.43378373 -0.09336853 87.97445679 C-0.09026489 81.4297778 -0.08206456 74.88511558 -0.07201904 68.34044397 C-0.06082784 60.88700278 -0.05533988 53.43356077 -0.05032361 45.98011327 C-0.03988112 30.65339914 -0.02230044 15.32670174 0 0 Z " fill="#EDE5EB" transform="translate(225,92)"/>
<path d="M0 0 C2.27902765 4.55805529 2.27406122 8.03344772 2.24050903 12.98492432 C2.24222107 13.90084351 2.24393311 14.8167627 2.24569702 15.76043701 C2.24901314 18.8459038 2.237951 21.93115454 2.22705078 25.01660156 C2.22643827 27.25984566 2.22670482 29.50309015 2.2277813 31.74633408 C2.22823349 37.76283734 2.21662756 43.77926132 2.20256042 49.79574585 C2.19118485 55.43788915 2.19063496 61.080013 2.18920898 66.72216797 C2.17870725 83.23145585 2.15078504 99.74072892 2.125 116.25 C2.08375 153.1275 2.0425 190.005 2 228 C89.12 228 176.24 228 266 228 C267.66679887 224.66640225 267.15407912 220.92177239 267.15821838 217.25558472 C267.16561287 215.88427399 267.16561287 215.88427399 267.17315674 214.48526001 C267.18860683 211.39365842 267.19691357 208.30207743 267.20532227 205.21044922 C267.21503227 202.96744668 267.22517743 200.72444598 267.23572445 198.48144722 C267.26284558 192.45658128 267.28398431 186.43170802 267.30391693 180.40681458 C267.32349488 174.76020746 267.34842382 169.11362902 267.3729248 163.46704102 C267.44151498 146.9363822 267.50147632 130.40568848 267.5625 113.875 C267.706875 76.95625 267.85125 40.0375 268 2 C183.52 2 99.04 2 12 2 C12.33 1.34 12.66 0.68 13 0 C97.81 0 182.62 0 270 0 C270 76.23 270 152.46 270 231 C180.9 231 91.8 231 0 231 C0 154.77 0 78.54 0 0 Z " fill="#1E2C4D" transform="translate(203,69)"/>
<path d="M0 0 C-0.99 0.66 -1.98 1.32 -3 2 C-2.505 2.99 -2.505 2.99 -2 4 C-1.14535156 3.85691406 -0.29070312 3.71382812 0.58984375 3.56640625 C2.27787109 3.28603516 2.27787109 3.28603516 4 3 C5.01191406 2.82339844 6.02382813 2.64679688 7.06640625 2.46484375 C21.35273255 0.30992302 33.99821463 1 49 1 C49 44.56 49 88.12 49 133 C28.271875 133.2784375 28.271875 133.2784375 7.125 133.5625 C0.57422607 133.65446655 0.57422607 133.65446655 -6.10888672 133.74829102 C-11.43188477 133.81628418 -11.43188477 133.81628418 -13.92190552 133.8467865 C-15.66517609 133.86911436 -17.40842136 133.89347319 -19.15164185 133.91941833 C-21.78839504 133.95827133 -24.42515611 133.99072808 -27.06201172 134.02172852 C-27.84175795 134.03469499 -28.62150417 134.04766146 -29.42487907 134.06102085 C-34.77194733 134.11402634 -34.77194733 134.11402634 -37 133 C-37 117.82 -37 102.64 -37 87 C-50.86 87 -64.72 87 -79 87 C-79 86.67 -79 86.34 -79 86 C-64.81 86 -50.62 86 -36 86 C-36 100.85 -36 115.7 -36 131 C-8.28 131 19.44 131 48 131 C48 88.43 48 45.86 48 2 C21.13186835 3.8529746 -4.62686882 5.79491108 -30.79296875 11.58862305 C-33 12 -33 12 -36 12 C-36 28.17 -36 44.34 -36 61 C-50.19 61 -64.38 61 -79 61 C-79 49.12 -79 37.24 -79 25 C-78.67 25 -78.34 25 -78 25 C-78 36.55 -78 48.1 -78 60 C-64.47 60 -50.94 60 -37 60 C-37.33 44.49 -37.66 28.98 -38 13 C-38.66 13.33 -39.32 13.66 -40 14 C-40.33 27.86 -40.66 41.72 -41 56 C-41.33 56 -41.66 56 -42 56 C-42 40.16 -42 24.32 -42 8 C-37.72904387 6.29161755 -34.16668177 5.33344086 -29.6875 4.4921875 C-28.99615967 4.36184113 -28.30481934 4.23149475 -27.5925293 4.09719849 C-26.13734887 3.82417763 -24.68168844 3.55370416 -23.22558594 3.28564453 C-21.00573925 2.87605895 -18.78801203 2.45619491 -16.5703125 2.03515625 C-15.15115679 1.77021595 -13.73188942 1.50587287 -12.3125 1.2421875 C-11.02988281 1.0035498 -9.74726563 0.76491211 -8.42578125 0.51904297 C-5.5369283 0.08135045 -2.91090145 -0.11061982 0 0 Z " fill="#F6D5DB" transform="translate(401,146)"/>
<path d="M0 0 C10.56 0 21.12 0 32 0 C32 15.75 32 15.75 28.9375 20.8359375 C28.30585938 21.91875 27.67421875 23.0015625 27.0234375 24.1171875 C26.35570312 25.19226563 25.68796875 26.26734375 25 27.375 C24.33226562 28.50421875 23.66453125 29.6334375 22.9765625 30.796875 C21.34412122 33.54870458 19.68598615 36.28077081 18 39 C14.06825685 35.33222547 11.20063824 31.5599955 8.375 27 C7.9934375 26.39671875 7.611875 25.7934375 7.21875 25.171875 C5.54046147 22.50976216 3.89842623 19.82931896 2.2890625 17.125 C1.17066245 15.09138714 1.17066245 15.09138714 0 14 C0 9.38 0 4.76 0 0 Z " fill="#1D1D5B" transform="translate(327,238)"/>
<path d="M0 0 C0 15.84 0 31.68 0 48 C-13.53 48 -27.06 48 -41 48 C-41.33 35.79 -41.66 23.58 -42 11 C-42.99 11 -43.98 11 -45 11 C-43.125 7.125 -43.125 7.125 -42 6 C-40.35 6 -38.7 6 -37 6 C-37 18.54 -37 31.08 -37 44 C-26.11 44 -15.22 44 -4 44 C-4.03480469 40.99132812 -4.06960938 37.98265625 -4.10546875 34.8828125 C-4.12884783 31.97706044 -4.1470738 29.07131875 -4.16479492 26.16552734 C-4.17990526 24.14204234 -4.20039437 22.1185902 -4.22631836 20.09521484 C-4.26260328 17.19099835 -4.27970355 14.28721385 -4.29296875 11.3828125 C-4.30845261 10.47443634 -4.32393646 9.56606018 -4.33988953 8.63015747 C-4.34011612 7.78943695 -4.34034271 6.94871643 -4.34057617 6.08251953 C-4.34723801 5.34083527 -4.35389984 4.599151 -4.36076355 3.83499146 C-4.24171158 3.22944427 -4.12265961 2.62389709 -4 2 C-1 0 -1 0 0 0 Z " fill="#FCFAFB" transform="translate(364,158)"/>
<path d="M0 0 C0.33 0 0.66 0 1 0 C1 43.23 1 86.46 1 131 C-19.728125 131.2784375 -19.728125 131.2784375 -40.875 131.5625 C-47.42577393 131.65446655 -47.42577393 131.65446655 -54.10888672 131.74829102 C-59.43188477 131.81628418 -59.43188477 131.81628418 -61.92190552 131.8467865 C-63.66517609 131.86911436 -65.40842136 131.89347319 -67.15164185 131.91941833 C-69.78839504 131.95827133 -72.42515611 131.99072808 -75.06201172 132.02172852 C-75.84175795 132.03469499 -76.62150417 132.04766146 -77.42487907 132.06102085 C-82.77194733 132.11402634 -82.77194733 132.11402634 -85 131 C-85 115.82 -85 100.64 -85 85 C-98.86 85 -112.72 85 -127 85 C-127 84.67 -127 84.34 -127 84 C-112.81 84 -98.62 84 -84 84 C-84 98.85 -84 113.7 -84 129 C-56.28 129 -28.56 129 0 129 C0 86.43 0 43.86 0 0 Z " fill="#FEA2A1" transform="translate(449,148)"/>
<path d="M0 0 C0 42.57 0 85.14 0 129 C-27.72 129 -55.44 129 -84 129 C-84 114.48 -84 99.96 -84 85 C-83.67 85 -83.34 85 -83 85 C-82.67 98.86 -82.34 112.72 -82 127 C-55.27 127.33 -28.54 127.66 -1 128 C-1 86.42 -1 44.84 -1 2 C-2.32 2.33 -3.64 2.66 -5 3 C-7.39111885 3.13742469 -9.7852917 3.22464917 -12.1796875 3.28125 C-12.87007111 3.29965942 -13.56045471 3.31806885 -14.27175903 3.33703613 C-16.47275583 3.39557279 -18.67382915 3.44845146 -20.875 3.5 C-23.76837686 3.56808694 -26.66153393 3.64181584 -29.5546875 3.71875 C-30.83843262 3.74904297 -32.12217773 3.77933594 -33.44482422 3.81054688 C-36.71021635 3.98455761 -39.78570588 4.42593694 -43 5 C-45.12411996 5.06460219 -47.25002905 5.08611079 -49.375 5.0625 C-50.96441406 5.04896484 -50.96441406 5.04896484 -52.5859375 5.03515625 C-53.78089844 5.01775391 -53.78089844 5.01775391 -55 5 C-55 5.66 -55 6.32 -55 7 C-58.96 7 -62.92 7 -67 7 C-67 6.67 -67 6.34 -67 6 C-54.37437527 3.90513122 -41.75216937 1.89415695 -29 0.75 C-27.73434204 0.63035889 -27.73434204 0.63035889 -26.44311523 0.50830078 C-17.57778518 -0.22155717 -8.98436121 0 0 0 Z " fill="#DB1616" transform="translate(449,148)"/>
<path d="M0 0 C31.68 0 63.36 0 96 0 C96 0.99 96 1.98 96 3 C64.32 2.67 32.64 2.34 0 2 C0 1.34 0 0.68 0 0 Z " fill="#FFD2D1" transform="translate(226,277)"/>
<path d="M0 0 C-0.99 0.66 -1.98 1.32 -3 2 C-2.67 2.66 -2.34 3.32 -2 4 C-1.14535156 3.85691406 -0.29070312 3.71382812 0.58984375 3.56640625 C2.27787109 3.28603516 2.27787109 3.28603516 4 3 C5.01191406 2.82339844 6.02382813 2.64679688 7.06640625 2.46484375 C20.97267241 0.36725053 34.97333967 0.81513931 49 1 C49 1.33 49 1.66 49 2 C47.84890747 2.06731323 47.84890747 2.06731323 46.67456055 2.13598633 C32.52257495 2.97983013 18.40652394 3.93488177 4.3125 5.5 C2.69637817 5.67752808 2.69637817 5.67752808 1.04760742 5.85864258 C-4.90287749 6.54504011 -10.76097714 7.44428918 -16.63598633 8.61523438 C-19 9 -19 9 -23 9 C-23 8.34 -23 7.68 -23 7 C-20.69 7 -18.38 7 -16 7 C-17.25541557 4.48916886 -18.50063488 4.12874554 -21 3 C-18.43850372 2.49432271 -15.87600535 1.99529868 -13.3125 1.5 C-12.59126953 1.35691406 -11.87003906 1.21382812 -11.12695312 1.06640625 C-7.36158641 0.34428113 -3.85526187 -0.1824976 0 0 Z " fill="#F2E4E9" transform="translate(401,146)"/>
<path d="M0 0 C1.03688965 0.01047363 2.0737793 0.02094727 3.14208984 0.03173828 C4.26357422 0.03818359 5.38505859 0.04462891 6.54052734 0.05126953 C7.71615234 0.06802734 8.89177734 0.08478516 10.10302734 0.10205078 C11.28638672 0.11107422 12.46974609 0.12009766 13.68896484 0.12939453 C16.61885257 0.15302266 19.54834075 0.18596564 22.47802734 0.22705078 C22.80802734 1.87705078 23.13802734 3.52705078 23.47802734 5.22705078 C12.91802734 5.22705078 2.35802734 5.22705078 -8.52197266 5.22705078 C-7.20197266 4.23705078 -5.88197266 3.24705078 -4.52197266 2.22705078 C-2.52197266 0.22705078 -2.52197266 0.22705078 0 0 Z " fill="#E5E3EA" transform="translate(335.52197265625,232.77294921875)"/>
<path d="M0 0 C0 0.33 0 0.66 0 1 C-0.81976318 1.0501123 -1.63952637 1.10022461 -2.48413086 1.15185547 C-23.21034702 2.39858634 -23.21034702 2.39858634 -43.84765625 4.6328125 C-46.605853 4.95408944 -49.22787957 5.07336425 -52 5 C-51.67 4.34 -51.34 3.68 -51 3 C-48.34765625 2.44140625 -48.34765625 2.44140625 -45 2 C-43.48212891 1.73509766 -43.48212891 1.73509766 -41.93359375 1.46484375 C-28.02732759 -0.63274947 -14.02666033 -0.18486069 0 0 Z " fill="#FFE7E6" transform="translate(450,147)"/>
<path d="M0 0 C9.9 0 19.8 0 30 0 C29.67 0.66 29.34 1.32 29 2 C20.09 1.67 11.18 1.34 2 1 C2.33 5.95 2.66 10.9 3 16 C2.01 15.34 1.02 14.68 0 14 C0 9.38 0 4.76 0 0 Z " fill="#2C2B5B" transform="translate(327,238)"/>
<path d="M0 0 C-0.99 1.485 -0.99 1.485 -2 3 C-1.01 3 -0.02 3 1 3 C1 3.66 1 4.32 1 5 C-3.95 6.65 -8.9 8.3 -14 10 C-14 9.34 -14 8.68 -14 8 C-12.02 7.67 -10.04 7.34 -8 7 C-7.938125 6.05125 -7.87625 5.1025 -7.8125 4.125 C-7 1 -7 1 -4.5625 -0.4375 C-2 -1 -2 -1 0 0 Z " fill="#F6E3E5" transform="translate(321,166)"/>
<path d="M0 0 C0.66 0.33 1.32 0.66 2 1 C1.48118887 5.1724106 0.28848726 7.25416821 -2.5625 10.3125 C-3.20316406 11.00988281 -3.84382813 11.70726563 -4.50390625 12.42578125 C-4.99761719 12.94527344 -5.49132812 13.46476562 -6 14 C-6.66 13.67 -7.32 13.34 -8 13 C-6.85605098 11.01974361 -5.70978896 9.04082322 -4.5625 7.0625 C-3.92441406 5.96035156 -3.28632813 4.85820313 -2.62890625 3.72265625 C-1 1 -1 1 0 0 Z " fill="#2C2C5E" transform="translate(388,93)"/>
<path d="M0 0 C-0.33 0.99 -0.66 1.98 -1 3 C-1.99 3 -2.98 3 -4 3 C-4 3.66 -4 4.32 -4 5 C-4.99 5 -5.98 5 -7 5 C-7 5.99 -7 6.98 -7 8 C-10.50591348 10.68099266 -13.65840504 11.49516338 -18 12 C-13.92779659 7.36611336 -6.379187 0 0 0 Z " fill="#EB1B21" transform="translate(253,204)"/>
<path d="M0 0 C0.99 0.33 1.98 0.66 3 1 C2.67 2.32 2.34 3.64 2 5 C2.99 5.33 3.98 5.66 5 6 C0.71 6.66 -3.58 7.32 -8 8 C-8.66 6.68 -9.32 5.36 -10 4 C-9.34 3.34 -8.68 2.68 -8 2 C-8 3.32 -8 4.64 -8 6 C-6.35 6 -4.7 6 -3 6 C-3 4.68 -3 3.36 -3 2 C-2.01 2 -1.02 2 0 2 C0 1.34 0 0.68 0 0 Z " fill="#2C2A61" transform="translate(366,146)"/>
<path d="M0 0 C3.50297874 4.02193856 9 10.39433144 9 16 C4.60841671 14.5361389 4.12052567 12.02168662 2 8 C1.34 8 0.68 8 0 8 C0 5.36 0 2.72 0 0 Z " fill="#2A285F" transform="translate(310,111)"/>
<path d="M0 0 C0.66 0.33 1.32 0.66 2 1 C0.625 3.5 0.625 3.5 -1 6 C-1.66 6 -2.32 6 -3 6 C-3 6.66 -3 7.32 -3 8 C-4.98 8 -6.96 8 -9 8 C-6.81981814 3.51851506 -4.65170644 1.78150459 0 0 Z " fill="#F5F4F8" transform="translate(278,183)"/>
<path d="M0 0 C3.33511388 2.9901021 5.21521119 5.89498574 7 10 C7 10.66 7 11.32 7 12 C6.34 12 5.68 12 5 12 C4.67 11.34 4.34 10.68 4 10 C2.35857037 8.9590934 0.69287785 7.95495674 -1 7 C-0.67 4.69 -0.34 2.38 0 0 Z " fill="#26255B" transform="translate(330,148)"/>
<path d="M0 0 C2.97 0.33 5.94 0.66 9 1 C7.92598892 3.91517292 7.22189824 5.77810176 5 8 C4.16382818 6.8562364 3.33113541 5.70992861 2.5 4.5625 C2.0359375 3.92441406 1.571875 3.28632813 1.09375 2.62890625 C0 1 0 1 0 0 Z " fill="#2B295D" transform="translate(339,269)"/>
<path d="M0 0 C1.20366211 0.00483398 1.20366211 0.00483398 2.43164062 0.00976562 C3.68170898 0.02233398 3.68170898 0.02233398 4.95703125 0.03515625 C5.80201172 0.03966797 6.64699219 0.04417969 7.51757812 0.04882812 C9.6015928 0.06060222 11.68557102 0.07853735 13.76953125 0.09765625 C13.76953125 0.42765625 13.76953125 0.75765625 13.76953125 1.09765625 C11.04076817 1.43461487 8.31159962 1.76734054 5.58203125 2.09765625 C4.42864258 2.24074219 4.42864258 2.24074219 3.25195312 2.38671875 C-0.59975686 2.84958519 -4.34217726 3.22233093 -8.23046875 3.09765625 C-6.49780437 -0.36767252 -3.47924994 -0.02467553 0 0 Z " fill="#FECFCE" transform="translate(406.23046875,148.90234375)"/>
<path d="M0 0 C0 0.99 0 1.98 0 3 C-3.22791555 5.1519437 -4.28400809 5.20086443 -8 5 C-8 5.66 -8 6.32 -8 7 C-9.65 7 -11.3 7 -13 7 C-9.17058011 3.67006966 -4.62477778 1.94675475 0 0 Z " fill="#E42422" transform="translate(297,180)"/>
<path d="M0 0 C-5.73115109 3.59523599 -10.21017493 5.62964591 -17 6 C-14.42166561 3.42166561 -11.89674219 2.6238529 -8.5 1.3125 C-7.3346875 0.85488281 -6.169375 0.39726562 -4.96875 -0.07421875 C-2 -1 -2 -1 0 0 Z " fill="#DB2522" transform="translate(316,174)"/>
<path d="M0 0 C0.75 1.625 0.75 1.625 1 4 C-2.136 9.712 -2.136 9.712 -6 11 C-4.74194623 6.49197399 -3.09592835 3.5087188 0 0 Z " fill="#2D2C60" transform="translate(365,135)"/>
<path d="M0 0 C3.0916909 2.52956528 3.90931332 5.22454612 5 9 C3.68 8.01 2.36 7.02 1 6 C0.01 6.66 -0.98 7.32 -2 8 C-2.33 6.35 -2.66 4.7 -3 3 C-2.34 3 -1.68 3 -1 3 C-0.67 2.01 -0.34 1.02 0 0 Z " fill="#313066" transform="translate(324,136)"/>
<path d="M0 0 C0.33 0.66 0.66 1.32 1 2 C1.66 2 2.32 2 3 2 C2.1875 3.9375 2.1875 3.9375 1 6 C0.01 6.33 -0.98 6.66 -2 7 C-2 5.02 -2 3.04 -2 1 C-1.34 0.67 -0.68 0.34 0 0 Z " fill="#222756" transform="translate(228,208)"/>
<path d="M0 0 C0.33 0.99 0.66 1.98 1 3 C0.01 3 -0.98 3 -2 3 C-2 3.66 -2 4.32 -2 5 C-3.65 5.66 -5.3 6.32 -7 7 C-7.33 6.34 -7.66 5.68 -8 5 C-4.04 2.525 -4.04 2.525 0 0 Z " fill="#E31D1A" transform="translate(265,196)"/>
<path d="M0 0 C-0.33 0.99 -0.66 1.98 -1 3 C-1.99 3 -2.98 3 -4 3 C-4 3.66 -4 4.32 -4 5 C-4.99 5 -5.98 5 -7 5 C-7 5.66 -7 6.32 -7 7 C-8.32 6.67 -9.64 6.34 -11 6 C-9.54550599 4.9944239 -8.08627557 3.99569565 -6.625 3 C-5.40683594 2.1646875 -5.40683594 2.1646875 -4.1640625 1.3125 C-2 0 -2 0 0 0 Z " fill="#E12222" transform="translate(253,204)"/>
<path d="M0 0 C0.79921875 0.11085937 1.5984375 0.22171875 2.421875 0.3359375 C3.32679688 0.47902344 3.32679688 0.47902344 4.25 0.625 C4.25 0.955 4.25 1.285 4.25 1.625 C-0.04 2.285 -4.33 2.945 -8.75 3.625 C-8.75 2.965 -8.75 2.305 -8.75 1.625 C-5.5750906 -0.2828584 -3.64414789 -0.5359041 0 0 Z " fill="#FCCCCF" transform="translate(373.75,154.375)"/>
<path d="M0 0 C0.66 0.33 1.32 0.66 2 1 C1.67 2.65 1.34 4.3 1 6 C0.01 6 -0.98 6 -2 6 C-1.125 1.125 -1.125 1.125 0 0 Z " fill="#262657" transform="translate(388,93)"/>
<path d="M0 0 C0.33 0.66 0.66 1.32 1 2 C2.89533342 2.46523063 2.89533342 2.46523063 5.0625 2.625 C6.361875 2.74875 7.66125 2.8725 9 3 C9 3.33 9 3.66 9 4 C2.25 5.125 2.25 5.125 0 4 C0 2.68 0 1.36 0 0 Z " fill="#2D2E66" transform="translate(371,146)"/>
<path d="M0 0 C4.42857143 5.14285714 4.42857143 5.14285714 5 9 C2 8 2 8 0.8125 6.1875 C0 4 0 4 0 0 Z " fill="#343364" transform="translate(314,118)"/>
</svg>
